<?xml version="1.0" encoding="utf-8"?>
<!-- Generator: Adobe Illustrator 28.0.0, SVG Export Plug-In . SVG Version: 6.00 Build 0)  -->
<svg version="1.1" id="Logo" xmlns="http://www.w3.org/2000/svg" xmlns:xlink="http://www.w3.org/1999/xlink" x="0px" y="0px"
	 viewBox="0 0 1024 1024" style="enable-background:new 0 0 1024 1024;" xml:space="preserve">
<style type="text/css">
    #logo_g {
        fill: #F5F5F5;
    }
</style>
<g id="logo_g">
	<path d="M512,116.7c-218.32,0-395.3,176.98-395.3,395.3S293.68,907.3,512,907.3S907.3,730.32,907.3,512S730.32,116.7,512,116.7z
		 M512,876.98c-201.57,0-364.98-163.41-364.98-364.98S310.43,147.02,512,147.02S876.98,310.43,876.98,512S713.57,876.98,512,876.98z
		"/>
	<path d="M505.83,154.95c-17.51,0-31.71,14.2-31.71,31.71s14.2,31.71,31.71,31.71s31.71-14.2,31.71-31.71
		S523.34,154.95,505.83,154.95z M505.83,199.27c-6.97,0-12.61-5.65-12.61-12.61s5.65-12.61,12.61-12.61
		c6.96,0,12.61,5.65,12.61,12.61S512.79,199.27,505.83,199.27z"/>
	<polygon points="626.97,445.07 763.9,291.51 720.66,252.96 604.27,380.64 	"/>
	<rect x="228.46" y="663.28" width="563.18" height="61.07"/>
	<rect x="400.63" y="340.14" transform="matrix(0.6694 -0.7429 0.7429 0.6694 -195.4847 469.6415)" width="58.6" height="228.64"/>
	<path d="M517.02,226.67c0,0-15.35,2.96-24.13-0.78c-9.86-3.92-16.63-14.37-16.63-14.37l-60.83,177.12l20.65,18.74L517.02,226.67z"
		/>
	<path d="M769.78,563.67l-14.17-0.11c0,0-22.88-21.44-22.88-36.48c0-16.48,22.34-34.5,22.34-34.5s7.39-12.57,0.09-26.03
		c-4.58-8.43-18.11,2.16-18.11,2.16L702.19,496c0,0-4.32-1.08-3.24-2.43c1.08-1.35,90.53-90.8,90.53-90.8l-13.24-16.21
		c0,0-117.28,135.93-117.56,134.85c-0.27-1.08-1.89-13.5-1.89-13.5l71.61-84.76c0,0-0.27-12.54-9.19-19.56
		c-8.92-7.03-23.78-4.86-23.78-4.86l-58.91,73.78l30.06,91.07H656.4L533.29,211.52l-25.39,52.97L643,563.56h-11.7L607.16,512
		l-40.72,51.56h-45.12l73.44-82.36l-29.22-58.06l-48.51,53.22l34.64,33.51l-49.77,53.69H366.16l36.34-81.2l-14.86-12.8l-32.28,94
		c0,0-25.29-33.35-25.29-59.45c0-40.72,15.49-51.17,12.05-66.51c-1.5-6.67-35.83-22.24-44.12-17.09
		c-8.29,5.15-6.49,8.35-10.09,24.56c-3.6,16.21-47.92,55.07-47.92,115.96c0,37.47,21.62,79.27,21.62,79.27l-33.15,12.61h563.18
		v-74.59c0,0-2.67-7.93-7.22-11.3C779.87,563.67,769.78,563.67,769.78,563.67z"/>
</g>
</svg>
